# xmcd
#
# Track frame offsets:
# 150
# 16666
# 33122
# 53412
# 65178
# 81889
# 100060
# 117007
# 133774
# 145835
# 165941
# 189198
# 204861
# 225237
#
# Disc length: 3119 seconds
#
#
# Revision: 1
# Processed by: cddbd v1.5.2PL0 Copyright (c) Steve Scherf et al.
# Submitted via: FreeRIP 2.70 
#
DISCID=9e0c2d0e
DTITLE=George Kamikawa - Sliding days
DYEAR=2009
DGENRE=Blues
TTITLE0=Devil in your bed
TTITLE1=I got a woman
TTITLE2=Waiting mind
TTITLE3=Black water blowing
TTITLE4=Stay this time
TTITLE5=Shake your money maker
TTITLE6=Walking blues
TTITLE7=Sliding days
TTITLE8=Creeper
TTITLE9=Diggin' my potatoes
TTITLE10=Early in the morning
TTITLE11=Desert dream
TTITLE12=Cross road
TTITLE13=Sandhill
EXTD=GeorgeKamikawa@ywww.yahoo.com.jp\nwww.GeorgeKamikawa.com.au\nwww.facebook.com/georgekamikawa\nwww.myspace.com/georgekamikawa\n
EXTT0=
EXTT1=
EXTT2=
EXTT3=
EXTT4=
EXTT5=
EXTT6=
EXTT7=
EXTT8=
EXTT9=
EXTT10=
EXTT11=
EXTT12=
EXTT13=
PLAYORDER=
